{
	"asset":{
		"generator":"Khronos glTF Blender I/O v3.6.27",
		"version":"2.0"
	},
	"scene":0,
	"scenes":[
		{
			"name":"Scene",
			"nodes":[
				0
			]
		}
	],
	"nodes":[
		{
			"mesh":0,
			"name":"d10-bev-rigid",
			"rotation":[
				-0.30456772446632385,
				0.6381524205207825,
				-0.30456769466400146,
				0.6381524801254272
			]
		}
	],
	"materials":[
		{
			"doubleSided":true,
			"name":"mtl_d10",
			"pbrMetallicRoughness":{
				"baseColorTexture":{
					"index":0
				},
				"metallicFactor":0,
				"roughnessFactor":0.5
			}
		}
	],
	"meshes":[
		{
			"name":"d10-bev",
			"primitives":[
				{
					"attributes":{
						"POSITION":0,
						"NORMAL":1,
						"TEXCOORD_0":2
					},
					"indices":3,
					"material":0
				}
			]
		}
	],
	"textures":[
		{
			"sampler":0,
			"source":0
		}
	],
	"images":[
		{
			"mimeType":"image/png",
			"name":"tx_d10_nl",
			"uri":"../textures/tx_d10_nl.png"
		}
	],
	"accessors":[
		{
			"bufferView":0,
			"componentType":5126,
			"count":284,
			"max":[
				0.884351909160614,
				0.972710132598877,
				0.8417820930480957
			],
			"min":[
				-0.884351909160614,
				-0.972710132598877,
				-0.8417820930480957
			],
			"type":"VEC3"
		},
		{
			"bufferView":1,
			"componentType":5126,
			"count":284,
			"type":"VEC3"
		},
		{
			"bufferView":2,
			"componentType":5126,
			"count":284,
			"type":"VEC2"
		},
		{
			"bufferView":3,
			"componentType":5123,
			"count":948,
			"type":"SCALAR"
		}
	],
	"bufferViews":[
		{
			"buffer":0,
			"byteLength":3408,
			"byteOffset":0,
			"target":34962
		},
		{
			"buffer":0,
			"byteLength":3408,
			"byteOffset":3408,
			"target":34962
		},
		{
			"buffer":0,
			"byteLength":2272,
			"byteOffset":6816,
			"target":34962
		},
		{
			"buffer":0,
			"byteLength":1896,
			"byteOffset":9088,
			"target":34963
		}
	],
	"samplers":[
		{
			"magFilter":9729,
			"minFilter":9987
		}
	],
	"buffers":[
		{
			"byteLength":10984,
			"uri":"d10.bin"
		}
	]
}
